<svg width="1600" height="900" viewBox="0 0 1600 900" fill="none" xmlns="http://www.w3.org/2000/svg">
  <rect width="1600" height="900" fill="#0E1011"/>
  <filter id="shadow" x="535" y="90" width="1030" height="700" color-interpolation-filters="sRGB" filterUnits="userSpaceOnUse">
    <feDropShadow dx="0" dy="34" stdDeviation="38" flood-color="#000000" flood-opacity=".52"/>
  </filter>
  <g filter="url(#shadow)">
    <rect x="610" y="150" width="850" height="560" rx="34" fill="#202223" fill-opacity=".94"/>
    <rect x="610.5" y="150.5" width="849" height="559" rx="33.5" stroke="#FFFFFF" stroke-opacity=".14"/>
  </g>

  <image href="app-icon.png" x="650" y="188" width="46" height="46"/>
  <text x="714" y="207" fill="#F5F5F3" font-family="-apple-system,BlinkMacSystemFont,Segoe UI,sans-serif" font-size="25" font-weight="700">Clippa</text>
  <text x="714" y="231" fill="#A2A6A5" font-family="-apple-system,BlinkMacSystemFont,Segoe UI,sans-serif" font-size="15" font-weight="500">4 Items</text>
  <rect x="1328" y="197" width="84" height="28" rx="14" fill="#0A84FF" fill-opacity=".14"/>
  <path d="M1344 211l4-5 4 5v6h-8v-6z" fill="#6DB8FF"/>
  <text x="1360" y="216" fill="#6DB8FF" font-family="-apple-system,BlinkMacSystemFont,Segoe UI,sans-serif" font-size="14" font-weight="650">2</text>

  <rect x="650" y="255" width="762" height="42" rx="11" fill="#FFFFFF" fill-opacity=".07"/>
  <circle cx="671" cy="276" r="6" stroke="#9DA3A2" stroke-width="2"/>
  <path d="M676 281l5 5" stroke="#9DA3A2" stroke-width="2" stroke-linecap="round"/>
  <text x="693" y="281" fill="#929897" font-family="-apple-system,BlinkMacSystemFont,Segoe UI,sans-serif" font-size="15">Search clipboard</text>

  <g font-family="-apple-system,BlinkMacSystemFont,Segoe UI,sans-serif" font-size="13" font-weight="600">
    <rect x="650" y="314" width="70" height="30" rx="15" fill="#0A84FF"/>
    <text x="674" y="334" fill="white">All</text>
    <rect x="729" y="314" width="90" height="30" rx="15" fill="#FFFFFF" fill-opacity=".07"/>
    <text x="749" y="334" fill="#D6D9D8">Pinned</text>
    <rect x="828" y="314" width="75" height="30" rx="15" fill="#FFFFFF" fill-opacity=".07"/>
    <text x="849" y="334" fill="#D6D9D8">Text</text>
    <rect x="912" y="314" width="78" height="30" rx="15" fill="#FFFFFF" fill-opacity=".07"/>
    <text x="932" y="334" fill="#D6D9D8">Links</text>
    <rect x="999" y="314" width="90" height="30" rx="15" fill="#FFFFFF" fill-opacity=".07"/>
    <text x="1018" y="334" fill="#D6D9D8">Images</text>
    <rect x="1098" y="314" width="76" height="30" rx="15" fill="#FFFFFF" fill-opacity=".07"/>
    <text x="1119" y="334" fill="#D6D9D8">Files</text>
  </g>

  <rect x="650" y="362" width="762" height="68" rx="13" fill="#0A84FF" fill-opacity=".15"/>
  <rect x="650.5" y="362.5" width="761" height="67" rx="12.5" stroke="#0A84FF" stroke-opacity=".34"/>
  <rect x="663" y="375" width="42" height="42" rx="9" fill="#FFFFFF" fill-opacity=".08"/>
  <path d="M674 403h20M674 393h24M674 383h17" stroke="#E6E8E7" stroke-width="3" stroke-linecap="round"/>
  <text x="720" y="391" fill="#F7F8F7" font-family="-apple-system,BlinkMacSystemFont,Segoe UI,sans-serif" font-size="18" font-weight="650">Release checklist</text>
  <text x="720" y="414" fill="#AAB0AE" font-family="-apple-system,BlinkMacSystemFont,Segoe UI,sans-serif" font-size="13">Text · Notes · now</text>
  <text x="1380" y="402" fill="#9AA09E" font-family="-apple-system,BlinkMacSystemFont,Segoe UI,sans-serif" font-size="17">↵</text>

  <rect x="650" y="438" width="762" height="68" rx="13" fill="#FFFFFF" fill-opacity=".035"/>
  <rect x="663" y="451" width="42" height="42" rx="9" fill="#64D2C8" fill-opacity=".12"/>
  <path d="M674 482l11-13 8 9 5-5 8 12h-32v-3z" fill="#64D2C8"/>
  <text x="720" y="467" fill="#F7F8F7" font-family="-apple-system,BlinkMacSystemFont,Segoe UI,sans-serif" font-size="18" font-weight="650">Clipboard image</text>
  <text x="720" y="490" fill="#AAB0AE" font-family="-apple-system,BlinkMacSystemFont,Segoe UI,sans-serif" font-size="13">Image · 1280 × 720 · Preview</text>

  <rect x="650" y="514" width="762" height="68" rx="13" fill="#FFFFFF" fill-opacity=".035"/>
  <rect x="663" y="527" width="42" height="42" rx="9" fill="#0A84FF" fill-opacity=".12"/>
  <path d="M674 549c5-7 10-7 15 0s10 7 15 0" stroke="#69B4FF" stroke-width="4" stroke-linecap="round"/>
  <text x="720" y="543" fill="#F7F8F7" font-family="-apple-system,BlinkMacSystemFont,Segoe UI,sans-serif" font-size="18" font-weight="650">https://example.com/research</text>
  <text x="720" y="566" fill="#AAB0AE" font-family="-apple-system,BlinkMacSystemFont,Segoe UI,sans-serif" font-size="13">URL · Safari · 2 min ago</text>

  <rect x="650" y="590" width="762" height="68" rx="13" fill="#FFFFFF" fill-opacity=".035"/>
  <rect x="663" y="603" width="42" height="42" rx="9" fill="#FFCC66" fill-opacity=".12"/>
  <path d="M675 611h17l8 8v18h-25v-26z" stroke="#FFD479" stroke-width="3" stroke-linejoin="round"/>
  <text x="720" y="619" fill="#F7F8F7" font-family="-apple-system,BlinkMacSystemFont,Segoe UI,sans-serif" font-size="18" font-weight="650">invoice.pdf</text>
  <text x="720" y="642" fill="#AAB0AE" font-family="-apple-system,BlinkMacSystemFont,Segoe UI,sans-serif" font-size="13">File · Finder · yesterday</text>

  <text x="610" y="772" fill="#7F8583" font-family="-apple-system,BlinkMacSystemFont,Segoe UI,sans-serif" font-size="16" font-weight="600">⇧⌘V to open · ↑↓ to select · ←→ to filter · Return to paste</text>
</svg>
