<svg width="1600" height="900" viewBox="0 0 1600 900" fill="none" xmlns="http://www.w3.org/2000/svg">
  <rect width="1600" height="900" fill="#0F1112"/>
  <filter id="shadow" x="340" y="78" width="920" height="744" color-interpolation-filters="sRGB" filterUnits="userSpaceOnUse">
    <feDropShadow dx="0" dy="30" stdDeviation="42" flood-color="#000000" flood-opacity=".48"/>
  </filter>
  <g filter="url(#shadow)">
    <rect x="420" y="125" width="760" height="650" rx="28" fill="#1F2122"/>
    <rect x="420.5" y="125.5" width="759" height="649" rx="27.5" stroke="#FFFFFF" stroke-opacity=".13"/>
  </g>

  <circle cx="462" cy="165" r="8" fill="#FF5F57"/>
  <circle cx="486" cy="165" r="8" fill="#FFBD2E"/>
  <circle cx="510" cy="165" r="8" fill="#28C840"/>
  <image href="app-icon.png" x="742" y="149" width="38" height="38"/>
  <text x="797" y="174" fill="#F5F5F3" font-family="-apple-system,BlinkMacSystemFont,Segoe UI,sans-serif" font-size="22" font-weight="700">Clippa Settings</text>

  <rect x="468" y="220" width="230" height="505" rx="18" fill="#FFFFFF" fill-opacity=".045"/>
  <g font-family="-apple-system,BlinkMacSystemFont,Segoe UI,sans-serif" font-size="17" font-weight="650">
    <rect x="488" y="245" width="190" height="44" rx="12" fill="#0A84FF" fill-opacity=".18"/>
    <text x="530" y="273" fill="#7CBCFF">General</text>
    <text x="530" y="328" fill="#B8BEBC">Privacy</text>
    <text x="530" y="383" fill="#B8BEBC">History</text>
    <text x="530" y="438" fill="#B8BEBC">About</text>
  </g>
  <path d="M506 267h12M506 260h12M506 274h12" stroke="#7CBCFF" stroke-width="2.5" stroke-linecap="round"/>
  <path d="M506 321h14v14h-14z" stroke="#A8AEAC" stroke-width="2.5" rx="3"/>
  <path d="M508 376h12M508 383h12M508 390h8" stroke="#A8AEAC" stroke-width="2.5" stroke-linecap="round"/>
  <circle cx="513" cy="431" r="8" stroke="#A8AEAC" stroke-width="2.5"/>

  <text x="742" y="249" fill="#F7F8F7" font-family="-apple-system,BlinkMacSystemFont,Segoe UI,sans-serif" font-size="28" font-weight="750">Keyboard-first by default</text>
  <text x="742" y="282" fill="#A8AEAC" font-family="-apple-system,BlinkMacSystemFont,Segoe UI,sans-serif" font-size="16">Clippa stays in the background until you need it.</text>

  <rect x="742" y="330" width="382" height="72" rx="16" fill="#FFFFFF" fill-opacity=".055"/>
  <text x="766" y="359" fill="#F2F4F3" font-family="-apple-system,BlinkMacSystemFont,Segoe UI,sans-serif" font-size="17" font-weight="650">Open clipboard history</text>
  <rect x="1018" y="346" width="82" height="34" rx="10" fill="#FFFFFF" fill-opacity=".08"/>
  <text x="1033" y="369" fill="#F2F4F3" font-family="-apple-system,BlinkMacSystemFont,Segoe UI,sans-serif" font-size="17" font-weight="700">⇧⌘V</text>

  <rect x="742" y="421" width="382" height="72" rx="16" fill="#FFFFFF" fill-opacity=".055"/>
  <text x="766" y="450" fill="#F2F4F3" font-family="-apple-system,BlinkMacSystemFont,Segoe UI,sans-serif" font-size="17" font-weight="650">Launch at login</text>
  <rect x="1058" y="445" width="42" height="24" rx="12" fill="#0A84FF"/>
  <circle cx="1088" cy="457" r="9" fill="#FFFFFF"/>

  <rect x="742" y="512" width="382" height="72" rx="16" fill="#FFFFFF" fill-opacity=".055"/>
  <text x="766" y="541" fill="#F2F4F3" font-family="-apple-system,BlinkMacSystemFont,Segoe UI,sans-serif" font-size="17" font-weight="650">Paste with a trailing space</text>
  <rect x="1058" y="536" width="42" height="24" rx="12" fill="#0A84FF"/>
  <circle cx="1088" cy="548" r="9" fill="#FFFFFF"/>

  <rect x="742" y="603" width="382" height="72" rx="16" fill="#FFFFFF" fill-opacity=".055"/>
  <text x="766" y="632" fill="#F2F4F3" font-family="-apple-system,BlinkMacSystemFont,Segoe UI,sans-serif" font-size="17" font-weight="650">Keep history</text>
  <rect x="1007" y="619" width="93" height="34" rx="10" fill="#FFFFFF" fill-opacity=".08"/>
  <text x="1022" y="642" fill="#F2F4F3" font-family="-apple-system,BlinkMacSystemFont,Segoe UI,sans-serif" font-size="15" font-weight="650">1 week</text>

  <text x="420" y="826" fill="#7E8582" font-family="-apple-system,BlinkMacSystemFont,Segoe UI,sans-serif" font-size="16" font-weight="600">Settings are local, readable, and intentionally small.</text>
</svg>
